<svg height="638" width="720" xmlns="http://www.w3.org/2000/svg">
<rect height="638" fill="#555" width="720"></rect>
<text fill="#7f7" font-family="Courier New" font-size="12" xml:space="preserve">
<tspan x="10" y="26">3 megabytes installed</tspan>
<tspan x="10" y="42"></tspan>
<tspan x="10" y="58">node_modules</tspan>
<tspan x="10" y="74">└─┬ msee@0.3.3 </tspan>
<tspan x="10" y="90">  ├── ansi-regex@2.1.1 </tspan>
<tspan x="10" y="106">  ├── ansicolors@0.3.2 </tspan>
<tspan x="10" y="122">  ├─┬ cardinal@0.7.1 </tspan>
<tspan x="10" y="138">  │ ├── ansicolors@0.2.1 </tspan>
<tspan x="10" y="154">  │ └─┬ redeyed@0.6.0 </tspan>
<tspan x="10" y="170">  │   └── esprima@2.7.3 </tspan>
<tspan x="10" y="186">  ├─┬ chalk@1.1.3 </tspan>
<tspan x="10" y="202">  │ ├── ansi-styles@2.2.1 </tspan>
<tspan x="10" y="218">  │ ├── escape-string-regexp@1.0.5 </tspan>
<tspan x="10" y="234">  │ ├── has-ansi@2.0.0 </tspan>
<tspan x="10" y="250">  │ ├── strip-ansi@3.0.1 </tspan>
<tspan x="10" y="266">  │ └── supports-color@2.0.0 </tspan>
<tspan x="10" y="282">  ├─┬ combined-stream-wait-for-it@1.1.0 </tspan>
<tspan x="10" y="298">  │ └── delayed-stream@1.0.0 </tspan>
<tspan x="10" y="314">  ├── entities@1.1.1 </tspan>
<tspan x="10" y="330">  ├── marked@0.3.6 </tspan>
<tspan x="10" y="346">  ├─┬ nopt@3.0.6 </tspan>
<tspan x="10" y="362">  │ └── abbrev@1.1.0 </tspan>
<tspan x="10" y="378">  ├─┬ table-header@0.2.2 </tspan>
<tspan x="10" y="394">  │ └── repeat-string@1.6.1 </tspan>
<tspan x="10" y="410">  ├── text-table@0.2.0 </tspan>
<tspan x="10" y="426">  ├─┬ through2@2.0.3 </tspan>
<tspan x="10" y="442">  │ └─┬ readable-stream@2.2.9 </tspan>
<tspan x="10" y="458">  │   ├── buffer-shims@1.0.0 </tspan>
<tspan x="10" y="474">  │   ├── core-util-is@1.0.2 </tspan>
<tspan x="10" y="490">  │   ├── inherits@2.0.3 </tspan>
<tspan x="10" y="506">  │   ├── isarray@1.0.0 </tspan>
<tspan x="10" y="522">  │   ├── process-nextick-args@1.0.7 </tspan>
<tspan x="10" y="538">  │   ├── string_decoder@1.0.0 </tspan>
<tspan x="10" y="554">  │   └── util-deprecate@1.0.2 </tspan>
<tspan x="10" y="570">  ├─┬ wcstring@2.1.1 </tspan>
<tspan x="10" y="586">  │ ├── varsize-string@2.2.2 </tspan>
<tspan x="10" y="602">  │ └── wcsize@1.0.0 </tspan>
<tspan x="10" y="618">  └── xtend@4.0.1</tspan>
</text>
</svg>
